<svg id="visual" viewBox="0 0 900 600" width="900" height="600" xmlns="http://www.w3.org/2000/svg" xmlns:xlink="http://www.w3.org/1999/xlink" version="1.1"><path d="M0 229L13.7 215C27.3 201 54.7 173 82 160C109.3 147 136.7 149 163.8 144C191 139 218 127 245.2 121C272.3 115 299.7 115 327 130C354.3 145 381.7 175 409 186C436.3 197 463.7 189 491 176C518.3 163 545.7 145 573 148C600.3 151 627.7 175 654.8 185C682 195 709 191 736.2 195C763.3 199 790.7 211 818 207C845.3 203 872.7 183 886.3 173L900 163L900 0L886.3 0C872.7 0 845.3 0 818 0C790.7 0 763.3 0 736.2 0C709 0 682 0 654.8 0C627.7 0 600.3 0 573 0C545.7 0 518.3 0 491 0C463.7 0 436.3 0 409 0C381.7 0 354.3 0 327 0C299.7 0 272.3 0 245.2 0C218 0 191 0 163.8 0C136.7 0 109.3 0 82 0C54.7 0 27.3 0 13.7 0L0 0Z" fill="#ff7ae2"></path><path d="M0 463L13.7 435C27.3 407 54.7 351 82 338C109.3 325 136.7 355 163.8 368C191 381 218 377 245.2 367C272.3 357 299.7 341 327 344C354.3 347 381.7 369 409 365C436.3 361 463.7 331 491 327C518.3 323 545.7 345 573 345C600.3 345 627.7 323 654.8 323C682 323 709 345 736.2 359C763.3 373 790.7 379 818 373C845.3 367 872.7 349 886.3 340L900 331L900 161L886.3 171C872.7 181 845.3 201 818 205C790.7 209 763.3 197 736.2 193C709 189 682 193 654.8 183C627.7 173 600.3 149 573 146C545.7 143 518.3 161 491 174C463.7 187 436.3 195 409 184C381.7 173 354.3 143 327 128C299.7 113 272.3 113 245.2 119C218 125 191 137 163.8 142C136.7 147 109.3 145 82 158C54.7 171 27.3 199 13.7 213L0 227Z" fill="#ff54da"></path><path d="M0 523L13.7 502C27.3 481 54.7 439 82 435C109.3 431 136.7 465 163.8 474C191 483 218 467 245.2 459C272.3 451 299.7 451 327 458C354.3 465 381.7 479 409 471C436.3 463 463.7 433 491 432C518.3 431 545.7 459 573 463C600.3 467 627.7 447 654.8 436C682 425 709 423 736.2 430C763.3 437 790.7 453 818 454C845.3 455 872.7 441 886.3 434L900 427L900 329L886.3 338C872.7 347 845.3 365 818 371C790.7 377 763.3 371 736.2 357C709 343 682 321 654.8 321C627.7 321 600.3 343 573 343C545.7 343 518.3 321 491 325C463.7 329 436.3 359 409 363C381.7 367 354.3 345 327 342C299.7 339 272.3 355 245.2 365C218 375 191 379 163.8 366C136.7 353 109.3 323 82 336C54.7 349 27.3 405 13.7 433L0 461Z" fill="#ff00d0"></path><path d="M0 565L13.7 556C27.3 547 54.7 529 82 526C109.3 523 136.7 535 163.8 538C191 541 218 535 245.2 538C272.3 541 299.7 553 327 558C354.3 563 381.7 561 409 552C436.3 543 463.7 527 491 523C518.3 519 545.7 527 573 534C600.3 541 627.7 547 654.8 544C682 541 709 529 736.2 530C763.3 531 790.7 545 818 549C845.3 553 872.7 547 886.3 544L900 541L900 425L886.3 432C872.7 439 845.3 453 818 452C790.7 451 763.3 435 736.2 428C709 421 682 423 654.8 434C627.7 445 600.3 465 573 461C545.7 457 518.3 429 491 430C463.7 431 436.3 461 409 469C381.7 477 354.3 463 327 456C299.7 449 272.3 449 245.2 457C218 465 191 481 163.8 472C136.7 463 109.3 429 82 433C54.7 437 27.3 479 13.7 500L0 521Z" fill="#dc01b4"></path><path d="M0 601L13.7 601C27.3 601 54.7 601 82 601C109.3 601 136.7 601 163.8 601C191 601 218 601 245.2 601C272.3 601 299.7 601 327 601C354.3 601 381.7 601 409 601C436.3 601 463.7 601 491 601C518.3 601 545.7 601 573 601C600.3 601 627.7 601 654.8 601C682 601 709 601 736.2 601C763.3 601 790.7 601 818 601C845.3 601 872.7 601 886.3 601L900 601L900 539L886.3 542C872.7 545 845.3 551 818 547C790.7 543 763.3 529 736.2 528C709 527 682 539 654.8 542C627.7 545 600.3 539 573 532C545.7 525 518.3 517 491 521C463.7 525 436.3 541 409 550C381.7 559 354.3 561 327 556C299.7 551 272.3 539 245.2 536C218 533 191 539 163.8 536C136.7 533 109.3 521 82 524C54.7 527 27.3 545 13.7 554L0 563Z" fill="#ba0199"></path></svg>